{"accessors": [{"bufferView": 2, "componentType": 5126, "count": 7875, "max": [1.314795970916748, 1.0, 0.08495073020458221], "min": [-1.1839064359664917, -1.0, -0.13730722665786743], "type": "VEC3"}, {"bufferView": 2, "byteOffset": 94500, "componentType": 5126, "count": 7875, "max": [0.9860348105430603, 0.973217785358429, 1.0], "min": [-0.998184323310852, -0.9524070024490356, -0.10912781208753586], "type": "VEC3"}, {"bufferView": 3, "componentType": 5126, "count": 7875, "max": [0.633372962474823, 1.0, 0.9528521299362183, 1.0], "min": [-0.6326006650924683, 0.2279118001461029, -0.96657794713974, 1.0], "type": "VEC4"}, {"bufferView": 1, "componentType": 5126, "count": 7875, "max": [0.9853416085243225, 0.787299633026123], "min": [0.01465839147567749, 0.21270036697387695], "type": "VEC2"}, {"bufferView": 1, "byteOffset": 63000, "componentType": 5126, "count": 7875, "max": [0.9853416085243225, 0.787299633026123], "min": [0.01465839147567749, 0.21270036697387695], "type": "VEC2"}, {"bufferView": 0, "componentType": 5125, "count": 46128, "type": "SCALAR"}], "asset": {"extras": {"author": "exiS7-Gs (https://sketchfab.com/exiS7-Gs)", "license": "CC-BY-4.0 (http://creativecommons.org/licenses/by/4.0/)", "source": "https://sketchfab.com/3d-models/american-wall-flag-da80c481fae84ce98536ce97c75b14cf", "title": "American wall flag"}, "generator": "Sketchfab-16.59.0", "version": "2.0"}, "bufferViews": [{"buffer": 0, "byteLength": 184512, "name": "floatBufferViews", "target": 34963}, {"buffer": 0, "byteLength": 126000, "byteOffset": 184512, "byteStride": 8, "name": "floatBufferViews", "target": 34962}, {"buffer": 0, "byteLength": 189000, "byteOffset": 310512, "byteStride": 12, "name": "floatBufferViews", "target": 34962}, {"buffer": 0, "byteLength": 126000, "byteOffset": 499512, "byteStride": 16, "name": "floatBufferViews", "target": 34962}], "buffers": [{"byteLength": 625512, "uri": "scene.bin"}], "images": [{"uri": "flag_normal.jpg"}], "materials": [{"name": "flag", "doubleSided": true, "pbrMetallicRoughness": {"baseColorFactor": [1, 1, 1, 1], "metallicFactor": 0, "roughnessFactor": 1}, "normalTexture": {"index": 0}}], "meshes": [{"name": "Plane_flag_0", "primitives": [{"attributes": {"NORMAL": 1, "POSITION": 0, "TANGENT": 2, "TEXCOORD_0": 3, "TEXCOORD_1": 4}, "indices": 5, "material": 0, "mode": 4}]}], "nodes": [{"children": [1], "matrix": [1.0, 0.0, 0.0, 0.0, 0.0, 2.220446049250313e-16, -1.0, 0.0, 0.0, 1.0, 2.220446049250313e-16, 0.0, 0.0, 0.0, 0.0, 1.0], "name": "Sketchfab_model"}, {"children": [2], "matrix": [0.009999999776482582, 0.0, 0.0, 0.0, 0.0, 0.0, 0.009999999776482582, 0.0, 0.0, -0.009999999776482582, 0.0, 0.0, 0.0, 0.0, 0.0, 1.0], "name": "flag.fbx"}, {"children": [3], "name": "RootNode"}, {"children": [4], "matrix": [-4.371138984105016e-06, -99.99999999999973, 5.960463766996327e-06, 0.0, -3.2584136455682255e-05, -1.1920926112907182e-05, -199.999999999997, 0.0, 99.99999999999858, -4.371139955550163e-06, -1.6292067961387602e-05, 0.0, 0.0, 0.0, 0.0, 1.0], "name": "Plane"}, {"mesh": 0, "name": "Plane_flag_0"}], "samplers": [{"magFilter": 9729, "minFilter": 9987, "wrapS": 10497, "wrapT": 10497}], "scene": 0, "scenes": [{"name": "Sketchfab_Scene", "nodes": [0]}], "textures": [{"sampler": 0, "source": 0}]}