{"asset": {"generator": "OpenSceneGraph 3.5.6", "version": "2.0"}, "accessors": [{"type": "VEC3", "componentType": 5126, "count": 3875, "max": [40.10004806518555, 73.20014190673828, 15.000011444091797], "min": [-36, -80, -2.5028501227097877e-07], "bufferView": 0, "byteOffset": 0}, {"type": "VEC3", "componentType": 5126, "count": 3875, "bufferView": 0, "byteOffset": 12}, {"type": "SCALAR", "componentType": 5123, "count": 16848, "bufferView": 1, "byteOffset": 0}], "bufferViews": [{"buffer": 0, "byteOffset": 0, "byteLength": 93000, "byteStride": 24, "target": 34962}, {"buffer": 0, "byteOffset": 93000, "byteLength": 33696, "target": 34963}], "buffers": [{"uri": "case.bin", "byteLength": 126696}], "materials": [{"name": "Scene - Root", "doubleSided": true, "pbrMetallicRoughness": {"roughnessFactor": 0.6, "metallicFactor": 0}}], "meshes": [{"name": "GeometryNode_2", "primitives": [{"attributes": {"POSITION": 0, "NORMAL": 1}, "mode": 4, "material": 0, "indices": 2}]}], "nodes": [{"name": "7a082f4aa6db4ec387adea9e520ed8fa.stl.cleaner.materialmerger.gles", "children": [1]}, {"name": "Group_1", "children": [2]}, {"name": "GeometryNode_2", "mesh": 0}, {"name": "Sketchfab_model", "translation": [31.1536922454834, 1.4938781261444092, -320.89306640625], "rotation": [-0.5019360743461038, -0.21554583625551826, -0.330510438419199, 0.7696512341068119], "children": [0]}], "scenes": [{"name": "Scene", "nodes": [3]}]}